<svg version="1.2" xmlns="http://www.w3.org/2000/svg" viewBox="0 0 1271 88" width="1271" height="88">
	<title>SKARNHEIM</title>
	<style>
		.s0 { fill: #ffffff } 
	</style>
	<path id="SKARNHEIM" fill-rule="evenodd" class="s0" d="m3.2 59q0.9 0 1.3 0.9l2.5 7 0.7 1.5q0.3 0.5 2 3.8 0.2 0.1 3.1 2.6l2.2 2.1q1.9 1.7 4.2 2.9 1.9 1.6 2.5 1.8 2.2 0.8 2.6 0.8l3.7-0.5q4.2-0.1 5.8-0.7 1.6-0.8 3.6-2.8 2.3-2.4 3-3.5 0.4-0.6 0.8-1.2 0.3-0.6 0.6-1 0.2-0.4 0.5-0.7 0.2-0.4 0.3-0.5 0.2-0.3 0.2-0.4 1.2-2.8 1.2-4.7 0-11.3-12.1-15.3l-4-1.9-8.5-2.3-2.2-1.3q-1.5-0.7-5.9-3.4-1.6-1.6-3.6-3.8-3.4-4.1-4-5.4-0.7-1.3-1.2-2.7l-0.1-2.4q0-1.2-0.1-2.4 0-1.4-0.1-2 0-0.7 0-1 0-2.8 1.6-6.1 1-2.1 3.1-5 1.4-2 6.5-5.7l2.4-1.8 1.8-0.8q5.1-2.5 9.8-2.5 6.6 0 8 0.1 3.1 0.2 9.1 2.5 1.2 0.1 3.4 1.9 1.5 1.8 2.5 6 1.8 7.5 1.6 7.7v1.1l0.4 2.6q0 1.2-1.3 1.2-1.3 0-2.3-0.9-0.6-0.8-2-4.2-0.6-1.2-2.6-3.2-0.1-0.1-3-2.1l-1.5-1.2-1.2-1q-3.7-3.7-4.2-4.1-1.6-1.1-3.8-1.1-0.8 0-3.6 0.4-3.7 0.5-4.8 1-1.8 0.7-3.2 2.4-3.1 3.5-3.6 4.2-1.3 2.6-1.6 3.7-0.3 1.8-0.3 2.8 0 2.7 1.7 6.5 1.2 3 6.5 5.8 1.4 0.9 4.8 1.6l1.4 0.3q1.1 0.3 5 1.2 0.7 0.2 4.2 2.2 2.1 0.9 3.8 1.7 1.8 1 3.4 2.5 5.2 4.4 6.4 6.6 1.1 2.3 2.3 4.3l1.6 3.2q0.7 4.3 0.7 7.9l0.1 2.8q0.3 4.7-4.4 10-1.2 1.6-5.2 5-0.6 0.7-4.2 2.8-3.5 1.8-4.5 2-3 0.8-4.9 0.7l-7-0.4h-3.2l-2.1-0.1-4.1-1q-3.9-0.8-8-1.5-5-1.5-5.4-4.7l-0.5-3.2q-0.5-2.7-0.6-5.7 0-1.9-0.1-3.9-0.2-0.8-0.2-1.7 0-6.3 2.3-6.3zm146.5-56h0.8q5.2 0.2 5.3 0.2 0.6 0 2.2-0.1 1.6-0.1 1.9-0.1h1.6l1.1-0.2h0.8q0.2 0 0.6 0.2 0.7 0 1.6 0.1 1.2 0 2.1 0 2.4 0.1 3.5 0.6 1.5 0.6 1.5 1.8 0 0.8-0.7 1.8-0.3 0.3-4.5 2.2-1.9 0.8-2.7 7.5 0 0.6-0.1 1.2 0 0.5-0.2 0.7 0 0.3 0 0.4l0.4 4.8q0 0.1-0.6 4.2v1.5q0 0.8 0.7 3.3 0.3 1.8 0.9 3.7 0.5 0.5 1.5 0.5 1.4 0 3.2-1.4l0.3-0.3q0.4-0.3 1-0.8 0.8-0.6 1.5-1.3 3.6-3.4 4.4-4.3 4-3 12-10.7 2.9-3.5 3.4-4.2 1.4-2.1 1.4-4 0-1.4-0.5-1.8l-2.4-2q-1-1-1-2.1 0-1.8 2.1-1.8l9.9 1q0.7 0.1 1.8 0.1 0.5 0 2.1-0.1 1.7-0.1 2.1-0.1 4.7 0 4.7 1.8 0 1.5-2.6 3.2-0.6 0.4-2 1.2-1.2 0.9-1.9 1.3l-4.1 3.8q-6.8 4.8-7.5 5.5l-0.3 0.2q-0.2 0.4-0.7 0.9-0.5 0.5-1.1 1.1-1.8 1.9-5.7 5.1l-2.7 2.2-1.6 1.3q-3.7 3.2-6.4 5.9-1.2 1.4-1.2 2.7 0 1 0.7 2.1 0.3 0.4 2.1 2.5 2.4 2.3 8.2 9.6 1.7 2.1 4.3 4.7 3.3 2.8 9.7 9.4l5.3 5.6q0.5 0.5 2.4 2.5 2 2 3.5 3.5 2.4 2.1 2.4 3.7 0 1.3-1.9 1.3-1.9 0-3.4-0.1-0.9-0.1-3.2-0.4h-0.6q-1.7 0.3-6.5 0.4-1.5 0.1-2.7 0.1-3.2 0-3.2-1.8 0-0.8 0.5-1.2l2.6-2.4-0.8-1.1-2.9-3.9q-4.9-4.7-5.5-5.8-0.9-1.5-1-1.6l-2.7-2q-4.3-4.3-7.9-7.7-2.5-2.6-3.2-3.1l-1.6-0.7q-0.1-0.2-0.5-0.4-0.2-0.2-0.5-0.4-1.7-1.4-2.3-1.4-1.9 0-1.6 2.4l0.1 5.1q0 0.3-0.4 2.7-0.2 3.7-0.2 3.8 0 0.8 0.5 3.3l0.3 4.3 0.4 2.6q0 0.4 0.1 0.8 0.2 0.4 0.2 0.7 0 0.2 0 0.6 0.1 0.2 0.1 0.5 0.1 0.1 0.2 0.3 0.2 0.3 0.3 0.5 0.1 0.2 0.2 0.4 0.3 0.1 0.5 0.4 0.3 0.2 0.5 0.5 0.4 0.2 0.9 0.4 1.1 0.9 2.8 2.1 0.5 0.4 0.5 1.1 0 1.3-1.4 1.3-0.8 0-1.7-0.1h-3.1q-0.8-0.2-1.6-0.2l-2.3 0.2h-1.1q-2.3 0-8.5 0.2-1.2 0.1-2.8 0.1-1.6 0-1.6-1.5 0-1.2 2.8-2.3 3.3-1.2 3.3-8.6l-0.1-0.7q0-0.7-0.1-2.1 0-1.6 0-3.5 0-0.7 0.1-2.9 0.3-2.2 0.3-2.7 0 0.1 0-0.4 0-0.5 0-0.7 0-0.4-0.2-1.1 0-0.8 0-1.5l-0.2-9q0-4.4-0.1-8.6-0.2-1.6-0.2-3.3 0-0.3 0.3-7.9v-2.5q0-2.8-1.2-11.9 0-2.8-0.2-3.3-0.2-0.8-4.4-3.8-1.1-1-1.1-2.2 0-1.6 2.5-1.6zm197.4 81.5q-0.3 0-0.5 0.1-2.5 0.9-4.4 0.9-2 0-2-1.2 0-0.9 1.7-2.3 3.7-2.9 3.7-6.7 0-2.1-1.1-5.6 0-0.1-0.4-0.7-0.2-0.7-0.8-2-0.5-1.3-1.1-2.8-0.4-0.7-2-7.5-1.6-4.5-6-4.5l-4-1q-1.9-0.8-4.7-0.8-4.1 0-6.2 1.1-1.6 0.5-3 5.1-0.7 3.2-1.6 4.5-1.7 2.9-2.3 5.1 0 0.1-0.5 2.6-0.6 4.6-0.6 5 0 2.5 0.6 3.5l0.5 0.4q0.5 0.5 1.5 1.6 0.9 1.1 2.2 2.4 1.3 1.3 1.3 1.8 0 1.6-2.9 1.6-1.6 0-4-0.1h-4.4l-5.4 0.1q-3 0-3-1.8 0-1.1 0.7-1.5l2.3-1.8q0.7-0.5 2.5-4.6 0.1-0.4 2.1-2.9 0.4-0.7 1.7-5.5 0.3-0.6 3-7.6l2-5.4q3-7.9 6.3-17.1 0-0.2 0.4-1.2 0.4-1.1 1.4-3.6 1-2.4 2-4.9 3.1-7.4 3.7-9.5 2-5.9 2.8-12.6 0.8-4.6 3-4.6 0.7 0 1.7 2.1 0.6 1.2 4.1 11.6 0 0.1 2 4.4 0.2 0.8 0.8 3.4 0.1 0.4 0.2 1.1 0.3 0.8 0.6 2.1 0.4 1.3 0.7 2.2 0.2 1 2 4.8l3.4 8.6 1.1 4.3 2.1 6.8q1.1 3.6 2.9 9.6 0.9 2.2 2.8 8.7 1.9 5.9 4.4 8.7 0.3 0.1 2.8 2 0.7 0.7 0.7 1.8 0 1.7-2.3 2.1l-7 0.2-3.1 0.2q-0.4 0-4.4-0.7zm-17.5-58.3q-0.4 0-0.6 0.3l-1.2 2q-1.4 2.4-2.5 4.3-1.8 5.5-1.8 7.8 0 1.4 0.3 2.2 0.8 1.7 4.9 2.6 1.2 0.1 1.8 0.4 1.6 0.5 2.8 0.5 1.6 0 1.6-1.8 0-6.6-1.6-11.8-2.1-6.5-3.7-6.5zm124.4-23.1h3.5l5.2-0.3q0.7 0 3.2 0.4 2.6 0.3 3.3 0.3 0.6 0 1-0.2 2.8-0.3 4.3-0.3 2.2 0 6.5 0.6 0.3 0.1 0.6 0.2 0.5 0 0.8 0 5.1 0.8 6.1 1.4 6.3 4.6 8.4 8 1.1 1.8 2 4.9l0.9 2.1q1 2.2 1 5.4 0 4.3-2.2 9-0.7 1.6-3.1 4.8-0.3 0.3-4.4 2.7-2.7 1.6-2.7 3.4 2.7 2.7 3.4 3.6 0.8 1.2 1.6 5.4 0.5 2.3 1.9 4.9 0.4 1.2 1 3.8l0.6 3.2q0.4 4.6 2 7.4 0.6 1 1.7 1.4 0.2 0.1 2.9 0.5 2.5 0.2 2.5 2.5 0 1.4-1 2.4-0.4 0.6-3.8 2.2-6.3 3.1-8.3 3.1-1.3 0-2.4-1.5 0-0.4-1.2-3.7-0.3-0.7-0.7-1.6-0.2-1-0.7-2.2-0.4-1.4-0.6-2.1 0-0.1-0.1-0.5-0.2-0.5-0.3-1.5-0.1-1.1-0.2-1.9l-1.1-4.7-1-6.2-0.8-2.9q-1.3-4.9-2.3-6.3-1.2-1.7-4.4-3.7-2.1-1.2-5.3-1.2-1.4 0-2.7 1.2-1.2 1.2-1.2 2.6l0.1 4.6q0 0.3-0.1 0.7 0 0.2-0.3 2.6-0.1 2.3-0.4 4.4l-0.3 4.1q0.2 4.4 1.6 11 0.7 1.6 2.3 2.4 4.7 2.2 4.7 3.8 0 1.5-1.5 1.6-0.1 0-3.9 0.2l-4-0.1h-2.4q-4.3-0.6-4.5-0.6-0.4 0-2.9 0.6h-3.8q-2.4 0.1-2.4-2.2 0-1.1 1.4-2.2 2.2-1.6 3.1-2.9 1.8-2.4 2.3-3.8 0.5-1.4 0.5-3.5l0.1-10.7q0-1 0-2 0-1.1 0-2 0.1-1 0.1-1.7 0.2-0.9 0.2-1.3v-0.5q0 0.1 0-0.4 0-0.6-0.2-1.2 0-0.7 0-1.4-0.1-2.1-0.1-6.9l0.1-4.9-0.2-6.5v-5.9l-0.1-1.1q0-0.9-0.1-2.1 0-1.3-0.2-1.9 0-0.7 0-1.1 0-0.8-0.8-4.8 0-0.3-0.9-3.9-0.5-1.2-2.4-2.5-1.9-1.1-1.9-2.1 0-1.2 0.5-1.7 0.7-0.7 2.5-0.7zm18.9 38.4h4.1q1.6 0 4-1.5 4.1-2.6 5.7-4.8 1.5-2 2.1-5.1 0.1-0.6 0.1-1.1 0.1-0.6 0.2-0.9 0.2-0.4 0.2-0.7 0.1-0.3 0.1-0.5v-0.2q0-1.4-0.6-4.7-0.3-0.8-0.6-2.7-0.5-2.9-4.2-6.3-2.1-2.8-3.2-3.6-2.2-1.5-4.5-1.5l-2.3 0.2q-3.4 0.6-3.7 0.9-1.1 1-2.2 4.8-1 3.3-1 3.7l0.4 3.8-0.1 4.7 0.2 2.7v1.7q0 3.2-0.1 4-0.1 0.3-0.1 0.7 0.2 1.9 0.3 3 0.4 2.4 1 3 0.5 0.4 4.2 0.4zm128.3-15.3v-3.1q0-3.9-0.5-5.9-0.9-4.3-2-5.6-0.7-0.8-5.3-3.2-1.9-0.9-1.9-2.7 0-2.2 1.7-2.2l3.2 0.1q0.5-0.1 3.2-0.4 0.1 0 0.7 0 0.8-0.1 2.2-0.1 1.6-0.1 3.4-0.1l7.8-0.4q3.5 0 3.5 2.5 0 0.6-0.1 0.9-0.4 2.5-0.4 3.4 0 3 7.5 14.2l1.2 2q0.4 0.5 2 3.2 1.6 2.6 3.8 5.9 2.2 3.3 5 6.8 2.9 3.4 6.9 7.7 0.3 0.4 0.5 0.7 0.4 0.3 0.5 0.5 0.3 0.3 0.4 0.5 0.2 0.2 0.4 0.3 1.3 2.2 2.7 2.8l3.2 1.6q1.3 0 2-2.6 0.4-1.1 1-7.5l0.5-6.4-0.1-6.5q0-0.9 0.2-3.6 0.2-0.2 0.2-0.6l-0.4-3.3-0.1-1.7q-0.8-4.3-1.1-9.1-0.9-3.6-6.7-7.2-1.3-0.7-1.3-1.9 0-0.4 0.5-1.3 0.5-0.8 0.8-0.8l7.3 0.7q0.1 0 1.7-0.5 1.6-0.5 2.2-0.5h3.7q3.5 0 4.2 0.3 1.5 0.5 1.5 1.8 0 1-0.9 1.5l-2.3 1.4q-3.6 1.8-3.7 5.2-0.1 1.5-0.4 8 0 0.9-0.1 1.9 0 1-0.1 1.6v1q0.1 0.5 0.1 1.4 0.1 0.9 0.1 1.9 0 2.9 0.1 6.3v2.9l-0.1 0.5q0 0.4-0.1 1 0 0.6-0.1 1.5 0 0.7-0.2 1.7 0 0.8 0 1.6v9.2q-0.4 3.8-0.4 4.9 0 1.1 0.4 5.6v6.9q0.2 2.8 0.2 5.2 0 1.8 0.1 2.3 0 0.7 0 1.4 0.1 0.8 0.1 1.3 0.1 0.3 0.1 0.5 0 3.9-2.8 3.9-1.2 0-1.3-0.5l-3.1-4.9q0-0.1-1.6-2.1-3.8-3.7-4.4-4.7-1.8-2.7-2.9-4.3-0.6-0.9-4.3-5.2l-1.1-1.1-2.1-2.8-2.4-3.1-2.4-3-2.6-3.2q-0.5-0.7-1.8-2.3-1.2-1.7-2.1-2.7-0.2-0.2-1.7-2.2-1.4-1.9-2.6-3.7-1.8-2.5-3-4.4-0.9-1.5-5-6.9l-4.3-6.1q-1.4 0-1.7 2.2v7.1l-0.1 5.8q-0.2 8-0.5 15.7-0.4 4.6-0.4 5.8 0 1.5 0.4 3.8 0 0.3 0.2 4.5l0.1 1.6q0.3 3.7 0.4 5.1 0.9 5.9 7.5 7.2 2 0.3 2 2.5 0 1.5-5.4 1.5-1.3 0-2.6-0.1-2.5-0.1-7.2-0.1-1.9 0-3 0.1h-0.9q-1.2 0-3.9-0.6-1.9-0.6-1.9-1.9 0-0.7 1-1.4 1.9-1 2.6-1.4 2.9-1.5 4.1-4.9 0.9-2.8 1.1-11.4 0-2.6 0.1-4l0.1-1.8q0-1.3-0.1-3.8v-1.3q0-1.7 0.5-5.5 0.1-0.9 0.1-1.4l-0.1-2.2v-2.4q0-0.5-0.1-1.1 0-0.7-0.2-1 0-0.4 0-0.5 0-1.2 0.5-4.2 0.1-0.4 0.1-3.1 0-0.5 0.2-2.3 0.1-2 0.1-2.6zm160.7-23.6q1.4 0 3 0.1h1.4q1.4 0.1 5 0.1h3.6l5.5-0.1q2.7 0 2.7 1.6 0 1-0.6 1.4l-2.5 1.9q-3.2 2.6-3.2 10.1 0 0.9 0.4 5.8v2q0 2.3-0.2 4.5-0.7 4.9-0.7 5.2 0 3.8 5.6 5 1.8 0.4 7.6 0.4h4.4q5.3 0 7.3-0.5l6.9 0.9q2.1 0.3 6.2-1.8 2.1-0.9 2.1-2.9 0-0.6-0.2-2.3 0-0.7-0.1-1l0.1-1.1v-5.3l0.4-5.8q-0.4-2.1-0.4-2.7 0-1.4 0.1-2.5 0.1-0.5 0.1-1.2 0-3.6-1.7-6-0.4-0.6-1.8-1.1-2.2-0.8-2.2-2.1 0-1.6 2.4-1.6c0.3 0 3.6 0 4.4 0q1.3-0.1 1.8-0.1 0.1 0 0.3 0.1 0.3 0 0.7 0.1 0.4 0 0.9 0 0.3 0.1 0.7 0.1 0.6 0 2.9-0.2 2.3-0.4 3.1-0.4 5.5 0 5.5 1.4 0 0.4-3.9 4-2.1 2.1-2.1 9.6 0 1 0.1 1.6 0.1 1.1 0.1 1.9 0 0.4-0.1 1.7 0 1.2 0 1.5 0 1.6 0.5 8.1l-0.2 2.4q0 2.4-0.2 5.3 0 0.8-0.2 3.7-0.1 0.4-0.1 1 0 1 0.3 5.3v1.5l-0.1 4.4-0.1 14.5q-0.3 6.5 2.4 9.3l0.3 0.2q0.4 0.2 0.9 0.7 0.4 0.4 1.1 0.9 1.4 1.1 1.4 1.9 0 1.3-1.7 1.3-1.5 0-3.6-0.4h-11.8q-3.7 0.2-4.1 0.2-1.6 0-1.6-1.1 0-0.3 0.2-0.6l3.6-3.3q1.4-1.2 1.9-5.3 0.2-1.6 0.4-7.6l0.1-1.5q-0.6-2.2-0.6-2.6l0.1-5.6q0-0.6 0-1.1 0.2-0.7 0.2-0.9 0.1-0.4 0.1-0.6 0-0.4 0-0.5 0-5-1-6.4-1.4-1.7-7.3-1.8l-2-0.2h-1.2q-5.6 0.3-6 0.3-0.1 0-3.1-0.3h-1.1q-0.1 0-0.5 0.2-0.3 0-1.2 0.1-0.8 0-1.7 0h-0.4q-0.8 0-4.2-0.5-1.7-0.3-2.9-0.3-6.8 0-7.6 4.6v4.2l-0.2 3q0 0.4 0 1.3 0.2 0.8 0.2 2.4 0.1 1.5 0.1 3v1.3q0 0.4-0.4 3.7 0.3 3 0.3 3.1 1.6 4.4 2.2 6.2 2.7 3 3.7 3.8 1.8 1.2 1.8 1.9 0 0.9-1.2 0.9h-11.1q-1 0-2.4-0.2-0.4-0.2-1.5-0.2-0.8 0-3.3 0.3-2.5 0.1-3.2 0.1-5.5 0-5.5-2.1 0-1.3 2.9-2.1 4.2-0.8 5.5-3.5 0.6-1.8 0.9-4.8 0.1-1.2 0.1-8 0-0.3-0.3-5-0.1-1.6-0.1-2.9 0-0.5 0.6-8.9-0.2-5.1-0.2-6.6 0-2.3 0.7-6.5 0.2-0.3 0.2-1.1 0-0.9-0.2-1.6-0.1-2.1-0.1-5.2 0 0.2 0-0.4 0.1-0.7 0.1-1.3v-4.1l-0.1-3.6v-2.7q0-6.4-5.4-8.1-2-0.5-2-2.2 0-1.7 3.3-1.7zm168.7 0l2.7 0.1q0.4 0 1.1 0 0.9-0.1 2.3-0.1 1.5-0.1 2.9-0.1 1.2 0 2.8-0.2 0.2 0 1.5 0 1.3-0.1 1.8-0.1 2.6 0 6.2 0.9 0.3 0.1 0.7 0.1 0.4 0 2.7-0.4 0.1-0.1 1.6-0.1 1.6 0 3.2-0.1 1.2-0.1 3-0.1 2.5 0 5.6 0.6 0.1 0 0.5 0.1 0.4 0.1 0.6 0.1 0.4-0.1 2.8-0.5h0.9q2.6 0 2.8 2.1 0.2 0.5 0.5 6.3-0.1 1.1-0.1 2.1 0 0.1 0 0.6 0.1 0.5 0.3 1.9 0.2 1.2 0.3 2.4 0 0.4 0 0.9 0.1 0.5 0.1 0.8 0.2 0.3 0.2 0.6 0 0.3 0 0.4 0 2-1.1 2-0.9-0.5-2.6-1.7-0.6-0.4-2.5-4.8l-1.2-1.9q-0.1-0.3-1.6-2.3-1.1-1.2-3.6-2-1.1-0.2-3.8-0.4-0.1-0.1-1.7-0.4-3.8-1.3-6-1.3-5.9 0-6.1 3.1l-0.2 2.7-0.3 1.9v0.9q-0.7 4.3-0.7 6.4c0 0.3 0 1 0 1.4q0 0.6 0 1.3 0.1 0.7 0.1 1.5 0 0.8 0 1.4l-0.1 5q0 5.9 4.2 5.9 2 0 3.6-1.1 4.4-3.1 6.1-5.2 1-1.3 1.8-1.3 0.9 0 1.5 1.3 0 0.2 0 0.5 0.1 0.4 0.1 1.1 0.2 0.8 0.2 1.4l0.2 2.3q0.1 2.4-0.2 6.8l-0.3 2.2 0.3 2.6q0 0.4 0 1 0.1 0.5 0.2 0.8v0.4q0 0.9-1 3.1-0.2 0.6-0.8 0.6-0.6 0-2.1-1.7l-1.4-1.7-1-2.8-2-2q-0.9-1.3-1.4-1.5-0.9-0.8-3.8-0.8-2.2 0-2.7 1.1 0 0.2-0.3 6.1 0 1-0.7 4.4-0.6 3.3-0.6 4.6 0 1.3 0.1 2.7l-0.1 3.2q0 0.8-0.3 5.5 0 0.4-0.1 0.7 0 0.3 0 0.5 0 0.3-0.1 0.5 0 0.1 0 0.3v0.1q0 4 7.4 4.3 4.4 0.5 5.4 0.5 1 0 4.5-1 2-0.5 2.7-1.2l2.4-2.2q2.8-1.9 3.2-2.5 0.7-1.4 2.7-6.7 0.6-1.7 2.1-1.7 1.6 0 1.6 2.6 0 8.5-0.5 11.3l-0.4 4.8q-0.6 2.5-2.8 2.5-0.4 0-6.9-1.4-3.3 0.5-3.9 0.5-0.2 0-0.9 0-0.6-0.1-2.1-0.1-1.5-0.1-3.2-0.1l-9.1 0.3q-0.4 0-2.1-0.1-1.6-0.1-2.1-0.1h-0.8q-4.1 0-8.8 0.1l-5.3 0.3q-2.1 0-2.1-1.3 0-1.6 1.5-2.4 1.6-0.9 2.7-1.3 2.1-2.5 2.6-3.5 0.3-1.2 0.6-4.2l0.4-3.6q0-0.6-0.1-2.4 0-2 0-2.5v-4.4q-0.2-1.4-0.2-2.5l0.2-1.2v-1q0-8.1 0.6-10.7-0.1-1.2-0.3-3.6-0.1-2.3 0-5.2v-3.5l0.3-5.3q0.2-3.4 0.7-6.5l-0.8-3.8q-0.8-3.9-1.6-5.2-1.6-2.3-5.7-4.9-0.5-0.4-0.5-1.2 0-2.6 3.6-2.6zm142.9-0.1l7.4 0.3q4.3-0.5 5.9-0.5 5.4 0 5.4 3.1 0 0.9-1.3 1.9-2.3 1.8-2.8 3.2-1.2 3.7-1.2 17.4 0-0.2 0 0.8 0.1 0.9 0.1 1.9 0.3 4.5 0.3 7.5v3.4q0 6.4-0.4 10.4-0.1 0.4-0.1 1.6 0 1.1 0.1 2 0.1 1.8 0.1 3.7v0.5q-0.1 0.5-0.1 1.1v1.2q0 1 0.5 3.8l0.1 6.4 0.2 2.1q0.6 0.9 1.3 2.6 0.1 0.4 0.5 1.1 0.4 0.7 0.5 1.1l1.8 1.8q1 1.4 1 2.1 0 2-1.2 2h-3.8q-2.5 0.2-3.1 0.2-0.1 0-0.5 0-0.4-0.1-1-0.1-0.6-0.1-1.2-0.1l-5.4 0.1q-1.9 0.1-4.2-0.7-1.1-0.6-1.1-1.9 0-0.7 0.4-1.1l3.2-2.7q1.1-1.4 1.2-3.9 0-0.3 0.1-1 0.1-0.7 0.3-1.8 0.1-1.3 0.2-2.5 0.1-0.4 0.1-1 0-0.5-0.2-2.2-0.1-1.7-0.1-2.2 0-0.7 0.2-5.4 0.4-3.7 0.4-5.6 0-0.4-0.6-7.2l0.3-4q0-0.1-0.1-0.3 0-0.4-0.1-0.9 0-0.6 0-1.2v-12.6q0-0.8-0.1-1.4-0.2-1.3-0.7-6.3l-0.1-6.6q-0.2-2.9-2.9-5.2-2.1-1.7-2.1-2.7 0-2 2.8-2.2zm124.7 60.2v5.7q0 2.5 1.6 7.6 0.5 1.7 5.4 5.4 2.5 2.1 2.5 3.1 0 1.4-3.1 1.4-0.2 0-4.9-0.3-2.6 0-5.4-0.1-8-0.1-9.2-0.5-1.4-0.6-1.4-2.1 0-0.7 0.3-1 0.3-0.5 2.8-1.8 4.9-2.6 5.6-11.6-0.2-3.9 0.4-17.7l0.1-2.2 0.7-11.7q0-2.8-1-8.5 0-0.2-0.3-12.6-0.2-3.7-1.1-5-0.5-0.8-5.1-3.4-2.1-1.4-2.1-3 0-1.7 1.3-1.9 0.9 0 2.2-0.2h3.1q0.3 0 0.9 0.2 0.6 0 1.7 0.1 1.1 0 2 0 0.8 0.1 1.4 0.1 2.4 0 6.7-0.5 0.7-0.1 1.6-0.1 1.9 0 2.6 1.7 0 0.5 0.4 3.6 0.3 4.8 1.3 9.3 1.7 7.3 8.1 20.3 0 0.2 0.1 0.5 0.1 0.4 0.4 1 0.2 0.6 0.5 1.4 1.2 4 1.7 5 0.5 1.2 1.5 4.2 0 0.1 3.4 5.8 1.6 2.7 1.7 3.7 0.5 1.6 1.4 1.6 1.2 0 3.4-3.4 0.2-0.1 0.8-1.1 1.6-2.2 4.9-10.7l0.7-1.7 1.1-2.9 2.3-5.6 3-8.8 2-6.1 1.8-4.6q1.5-4 2.8-7.5 0.2-0.5 0.4-1.4 0.3-1 0.5-1.4 0.5-1.4 1.6-1.9 2.1-0.6 7.2-0.6 1.4 0 3.2 0.2h0.3l3.8-0.1q0.9-0.1 2.4 1.5 0.6 0.8 0.6 1.3 0 1.1-0.7 1.4l-2.3 1q-1.9 0.7-3.8 4.5-0.5 1.1-0.7 4.7-0.4 3.8-0.5 10.1 0 4.8 0.1 7.5 0 1.2 0 2.4 0.2 1.1 0.2 1.8 0.1 0.6 0.1 0.7 0 9.2-0.1 10.8v5.5l0.1 9.8q0 0.5-0.1 2.3 0 1.7 0 2.1 0 1 0.8 4.3 1.4 4.8 2.2 5.3l3.1 1.8q0.7 0.6 0.7 1.9 0 1-0.5 1.6-0.3 0.5-1.2 0.3l-2.6-0.2h-6.4q-0.9 0.1-1.7 0.1l-7.7-0.1q-0.5 0-2.6 0.1-2.1 0-2.7 0-2.5 0-2.5-1.2 0-0.4 0-0.6 0.1-0.3 0.4-0.5 0.2-0.4 0.5-0.5 0.2-0.3 0.8-0.7 0.8-0.5 1.4-1 4.4-3.2 5.4-5.2 0.5-1.1 0.7-2.5-0.2-1.9 0.4-10.3l0.1-2.1 0.2-1.8q0.1-0.5 0.1-1.6 0-1.1 0.1-1.7l0.3-1.4q0-0.5-0.4-2.9l-0.1-4.5q0-2.7-0.4-5.4 0-0.7-0.1-1.3 0-0.7-0.2-0.9v-0.4q0-1 0.3-3.7 0.4-3.8 0.4-5.5 0-1.6-1-1.6-0.9 0-1.4 1.5l-0.5 1.3q-0.7 1.8-1.1 2.9-0.8 2.5-1.5 3.3l-1.6 2.1q-0.4 0.3-2.3 6.1-2.1 4.2-3.1 6.7-0.2 1.1-2.9 10.2-0.9 1.7-2.2 4.3-0.9 1.8-2.7 7.6l-2.1 4.4q-0.4 1-2.4 5.6-0.5 0.7-1.1 0.7-0.8 0-1.7-1.6-0.5-0.9-2-6.1-0.3-1.3-3.8-9.3-1.7-4.3-3.7-8.7-0.9-1.8-3.7-6.6-2-3.6-3.8-10.1-1.3-4.7-5.3-11.8-0.2-0.3-0.4-0.7l-0.2-0.3q-1.2-2.7-1.7-2.7-1.3 0-1.1 1.5l0.2 5.9-0.6 5.4-0.1 4.6q0.1 1.9 0.1 3.7 0 0.3-0.1 1.4 0 1-0.2 3.6-0.2 2.4-0.3 4.6 0.6 5.3 0.6 5.4z"/>
</svg>